<svg xmlns="http://www.w3.org/2000/svg" viewBox="0 0 32 32" style="fill:rgba(17,11,23,0.8)"><path d="M3.214 0.357v0h21c1.768 0 3.214 1.446 3.214 3.232v28.125l-3.375-2.982-1.893-1.75-2-1.875 0.821 2.911h-17.768c-1.768 0-3.214-1.446-3.214-3.232v-21.196c0-1.786 1.446-3.232 3.214-3.232zM11.321 7.661c0 0-2.161-0.054-4.411 1.643 0 0-2.25 4.089-2.25 9.143 0 0 1.304 2.286 4.768 2.393 0 0 0.589-0.714 1.054-1.304-1.982-0.589-2.732-1.857-2.732-1.857s0.143 0.107 0.429 0.268c0.018 0.018 0.036 0.036 0.071 0.054 0.054 0.036 0.089 0.036 0.143 0.071 0.393 0.214 0.786 0.393 1.143 0.536 0.643 0.25 1.411 0.5 2.304 0.679 1.179 0.214 2.554 0.304 4.054 0.018 0.732-0.125 1.482-0.357 2.268-0.679 0.554-0.196 1.161-0.5 1.804-0.929 0 0-0.786 1.304-2.839 1.875 0.464 0.589 1.036 1.268 1.036 1.268 3.464-0.107 4.804-2.393 4.804-2.393 0-5.054-2.268-9.143-2.268-9.143-2.25-1.696-4.393-1.643-4.393-1.643l-0.214 0.25c2.661 0.821 3.893 2 3.893 2-1.625-0.893-3.232-1.339-4.714-1.518-1.125-0.125-2.196-0.089-3.161 0.036-0.089 0-0.179 0.018-0.268 0.036-0.554 0.054-1.893 0.25-3.571 0.982-0.571 0.268-0.911 0.464-0.911 0.464s1.286-1.232 4.107-2.054zM10.875 13.518c0.893 0 1.625 0.768 1.607 1.732 0 0.964-0.714 1.75-1.607 1.75-0.875 0-1.589-0.786-1.589-1.75s0.696-1.732 1.589-1.732zM16.607 13.518c0.893 0 1.589 0.768 1.589 1.732s-0.696 1.75-1.589 1.75c-0.875 0-1.607-0.786-1.607-1.75s0.714-1.732 1.607-1.732z"></path></svg>
